<?xml version="1.0" encoding="UTF-8" standalone="no"?><!DOCTYPE svg PUBLIC "-//W3C//DTD SVG 1.1//EN" "http://www.w3.org/Graphics/SVG/1.1/DTD/svg11.dtd"><svg width="100%" height="100%" viewBox="0 0 500 500" version="1.1" xmlns="http://www.w3.org/2000/svg" xmlns:xlink="http://www.w3.org/1999/xlink" xml:space="preserve" xmlns:serif="http://www.serif.com/" style="fill-rule:evenodd;clip-rule:evenodd;stroke-linejoin:round;stroke-miterlimit:1.41421;"><path d="M97.257,80.166l-1.351,2.627l-0.32,0.626l-0.319,0.626l-0.318,0.628l-0.317,0.63l-0.316,0.63l-0.315,0.632l-0.314,0.633l-0.313,0.634l-0.312,0.636l-0.31,0.637l-0.31,0.638l-0.308,0.639l-0.308,0.64l-0.306,0.642l-0.306,0.643l-0.304,0.644l-0.303,0.645l-0.302,0.646l-0.301,0.648l-0.3,0.648l-0.299,0.65l-0.298,0.651l-0.297,0.652l-0.295,0.653l-0.295,0.654l-0.293,0.656l-0.292,0.656l-0.292,0.658l-0.29,0.658l-0.289,0.66l-0.287,0.661l-0.287,0.662l-0.285,0.663l-0.285,0.663l-0.283,0.665l-0.282,0.666l-0.281,0.667l-0.28,0.668l-0.278,0.669l-0.278,0.67l-0.276,0.671l-0.275,0.672l-0.274,0.673l-0.273,0.674l-0.272,0.675l-0.27,0.676l-0.269,0.677l-0.268,0.677l-0.267,0.679l-0.266,0.68l-0.264,0.68l-0.264,0.681l-0.262,0.683l-0.261,0.683l-0.259,0.684l-0.259,0.685l-0.257,0.686l-0.256,0.686l-0.255,0.688l-0.253,0.688l-0.253,0.689l-0.251,0.69l-0.249,0.691l-0.249,0.692l-0.247,0.692l-0.246,0.693l-0.245,0.694l-0.244,0.695l-0.242,0.696l-0.241,0.696l-0.24,0.697l-0.238,0.698l-0.237,0.698l-0.236,0.7l-0.235,0.7l-0.233,0.7l-0.232,0.702l-0.231,0.702l-0.23,0.703l-0.228,0.703l-0.227,0.705l-0.225,0.705l-0.225,0.705l-0.222,0.706l-0.222,0.707l-0.22,0.708l-0.219,0.708l-0.218,0.709l-0.216,0.709l-0.215,0.71l-0.214,0.711l-0.212,0.711l-0.211,0.712l-0.21,0.712l-0.208,0.713l-0.207,0.714l-0.205,0.714l-0.204,0.714l-0.203,0.715l-0.202,0.716l-0.2,0.716l-0.198,0.717l-0.197,0.717l-0.196,0.718l-0.195,0.718l-0.193,0.719l-0.192,0.719l-0.19,0.72l-0.189,0.72l-0.187,0.721l-0.186,0.721l-0.185,0.721l-0.183,0.722l-0.182,0.723l-0.181,0.722l-0.179,0.724l-0.177,0.723l-0.176,0.724l-0.175,0.725l-0.173,0.724l-0.172,0.726l-0.17,0.725l-0.169,0.726l-0.168,0.726l-0.165,0.727l-0.165,0.727l-0.163,0.727l-0.162,0.727l-0.16,0.728l-0.158,0.728l-0.157,0.729l-0.156,0.728l-0.154,0.729l-0.153,0.73l-0.151,0.729l-0.15,0.73l-0.148,0.73l-0.147,0.73l-0.145,0.731l-0.144,0.731l-0.142,0.731l-0.14,0.731l-0.139,0.731l-0.138,0.732l-0.136,0.732l-0.135,0.732l-0.133,0.732l-0.131,0.732l-0.13,0.732l-0.128,0.733l-0.127,0.733l-0.125,0.733l-0.124,0.733l-0.122,0.733l-0.121,0.733l-0.119,0.733l-0.117,0.734l-0.116,0.733l-0.114,0.734l-0.113,0.733l-0.111,0.734l-0.11,0.734l-0.108,0.734l-0.106,0.733l-0.105,0.734l-0.103,0.734l-0.101,0.734l-0.1,0.734l-0.099,0.734l-0.096,0.734l-0.095,0.734l-0.094,0.734l-0.092,0.734l-0.09,0.734l-0.088,0.733l-0.087,0.734l-0.086,0.734l-0.083,0.734l-0.082,0.733l-0.081,0.734l-0.078,0.733l-0.077,0.733l-0.076,0.733l-0.074,0.733l-0.072,0.733l-0.07,0.733l-0.069,0.733l-0.067,0.732l-0.065,0.733l-0.064,0.732l-0.062,0.732l-0.06,0.732l-0.059,0.732l-0.057,0.731l-0.055,0.732l-0.053,0.731l-0.052,0.73l-0.05,0.731l-0.048,0.731l-0.047,0.73l-0.045,0.73l-0.043,0.729l-0.042,0.73l-0.039,0.729l-0.038,0.729l-0.037,0.729l-0.034,0.728l-0.033,0.728l-0.031,0.728l-0.029,0.727l-0.028,0.727l-0.026,0.727l-0.024,0.726l-0.022,0.726l-0.02,0.726l-0.019,0.726l-0.017,0.725l-0.015,0.724l-0.013,0.724l-0.012,0.724l-0.01,0.724l-0.008,0.723l-0.006,0.722l-0.004,0.723l-0.003,0.721l-0.001,0.722l0.001,0.721l0.003,0.72l0.005,0.72l0.006,0.719l0.009,0.72l0.01,0.718l0.012,0.718l0.014,0.718l0.015,0.717l0.018,0.716l0.019,0.716l0.021,0.716l0.023,0.715l0.025,0.714l0.027,0.714l0.028,0.713l0.031,0.713l0.032,0.712l0.034,0.712l0.036,0.711l0.038,0.71l0.04,0.71l0.042,0.709l0.043,0.709l0.046,0.707l0.047,0.708l0.049,0.706l0.052,0.706l0.053,0.706l0.055,0.704l0.057,0.704l0.058,0.703l0.061,0.703l0.063,0.702l0.064,0.701l0.067,0.701l0.068,0.699l0.071,0.699l0.072,0.699l0.074,0.697l0.076,0.697l0.078,0.696l0.08,0.695l0.082,0.695l0.084,0.693l0.086,0.693l0.088,0.692l0.09,0.692l0.092,0.69l0.094,0.69l0.095,0.689l0.098,0.688l0.1,0.687l0.102,0.686l0.103,0.685l0.106,0.685l0.108,0.684l0.109,0.682l0.112,0.682l0.114,0.681l0.116,0.681l0.117,0.679l0.12,0.678l0.122,0.677l0.123,0.677l0.126,0.675l0.128,0.675l0.13,0.673l0.132,0.673l0.134,0.671l0.136,0.671l0.138,0.67l0.14,0.668l0.142,0.668l0.144,0.667l0.146,0.665l0.149,0.665l0.15,0.663l0.152,0.663l0.155,0.661l0.156,0.661l0.159,0.659l0.161,0.658l0.163,0.657l0.164,0.657l0.167,0.655l0.17,0.653l0.171,0.653l0.173,0.652l0.175,0.65l0.178,0.65l0.179,0.648l0.182,0.647l0.184,0.646l0.186,0.645l0.188,0.643l0.19,0.643l0.192,0.641l0.195,0.64l0.196,0.639l0.199,0.638l0.201,0.636l0.203,0.635l0.205,0.634l0.207,0.633l0.21,0.631l0.211,0.631l0.214,0.629l0.216,0.627l0.218,0.627l0.22,0.625l0.222,0.624l0.225,0.622l0.227,0.622l0.229,0.62l0.231,0.618l0.233,0.617l0.236,0.616l0.237,0.615l0.24,0.613l0.242,0.612l0.245,0.611l0.246,0.609l0.249,0.608l0.251,0.606l0.253,0.605l0.255,0.604l0.258,0.602l0.26,0.601l0.262,0.599l0.264,0.598l0.267,0.596l0.269,0.595l0.271,0.594l0.273,0.592l0.275,0.591l0.278,0.589l0.28,0.588l0.282,0.586l0.285,0.584l0.287,0.584l0.289,0.581l0.291,0.581l0.294,0.578l0.296,0.577l0.298,0.576l0.3,0.574l0.303,0.572l0.305,0.571l0.307,0.57l0.31,0.567l0.312,0.567l0.314,0.564l0.317,0.563l0.318,0.562l0.322,0.559l0.323,0.559l0.326,0.556l0.328,0.555l0.33,0.553l0.333,0.552l0.335,0.55l0.338,0.548l0.34,0.547l0.342,0.545l0.344,0.543l0.347,0.542l0.349,0.539l0.352,0.539l0.354,0.536l0.356,0.535l0.359,0.533l0.361,0.531l0.364,0.531l0.182,0.263l0.183,0.264l0.184,0.263l0.184,0.263l0.185,0.262l0.186,0.262l0.186,0.261l0.187,0.261l0.187,0.261l0.188,0.26l0.188,0.26l0.19,0.259l0.189,0.259l0.191,0.258l0.191,0.258l0.191,0.258l0.192,0.257l0.193,0.256l0.193,0.256l0.194,0.256l0.195,0.255l0.195,0.255l0.196,0.254l0.196,0.254l0.197,0.253l0.198,0.253l0.198,0.253l0.199,0.252l0.199,0.251l0.2,0.252l0.201,0.25l0.201,0.25l0.202,0.25l0.203,0.249l0.203,0.249l0.203,0.248l0.205,0.248l0.204,0.247l0.206,0.247l0.206,0.247l0.207,0.246l0.207,0.245l0.208,0.245l0.209,0.245l0.209,0.244l0.21,0.243l0.21,0.243l0.211,0.243l0.212,0.242l0.212,0.242l0.213,0.241l0.213,0.241l0.215,0.24l0.214,0.24l0.216,0.239l0.216,0.239l0.216,0.238l0.217,0.238l0.218,0.237l0.219,0.237l0.219,0.236l0.219,0.236l0.221,0.235l0.221,0.235l0.221,0.234l0.223,0.234l0.222,0.234l0.224,0.233l0.224,0.232l0.225,0.232l0.225,0.231l0.226,0.231l0.226,0.23l0.228,0.23l0.227,0.23l0.229,0.229l0.229,0.228l0.23,0.228l0.23,0.227l0.231,0.227l0.232,0.226l0.232,0.226l0.233,0.226l0.233,0.224l0.234,0.225l0.235,0.224l0.236,0.223l0.235,0.223l0.237,0.222l0.238,0.222l0.237,0.221l0.239,0.221l0.239,0.22l0.24,0.22l0.241,0.219l0.241,0.218l0.241,0.219l0.243,0.217l0.243,0.217l0.244,0.217l0.244,0.216l0.245,0.216l0.245,0.214l0.247,0.215l0.247,0.214l0.247,0.213l0.248,0.213l0.249,0.213l0.25,0.211l0.25,0.212l0.251,0.21l0.251,0.211l0.252,0.209l0.253,0.21l0.253,0.208l0.254,0.208l0.255,0.208l0.255,0.207l0.256,0.206l0.257,0.206l0.257,0.206l0.258,0.204l0.258,0.205l0.26,0.203l0.259,0.204l0.261,0.202l0.261,0.202l0.262,0.202l0.262,0.201l0.264,0.201l0.263,0.199l0.265,0.2l0.265,0.199l0.266,0.198l0.266,0.198l0.267,0.197l0.268,0.196l0.268,0.196l0.269,0.196l0.27,0.195l0.27,0.194l0.271,0.194l0.272,0.193l0.272,0.193l0.274,0.192l0.273,0.192l0.275,0.191l0.275,0.19l0.275,0.19l0.277,0.189l0.277,0.189l0.277,0.188l0.279,0.188l0.279,0.187l0.279,0.186l0.281,0.186l0.281,0.185l0.281,0.185l0.283,0.184l0.283,0.184l0.284,0.183l0.284,0.182l0.285,0.182l0.286,0.181l0.286,0.181l0.287,0.18l0.288,0.18l0.288,0.179l0.289,0.178l0.29,0.178l0.291,0.177l0.291,0.176l0.292,0.176l0.292,0.176l0.293,0.175l0.294,0.174l0.295,0.173l0.295,0.174l0.296,0.172l0.296,0.172l0.298,0.171l0.298,0.171l0.298,0.17l0.299,0.169l0.3,0.169l0.301,0.168l0.301,0.168l0.302,0.167l0.303,0.167l0.304,0.165l0.304,0.166l0.305,0.164l0.305,0.164l0.306,0.164l0.307,0.163l0.308,0.162l0.308,0.161l0.309,0.161l0.309,0.161l0.311,0.16l0.311,0.159l0.311,0.158l0.313,0.158l0.313,0.158l0.314,0.156l0.314,0.156l0.315,0.156l0.316,0.155l0.317,0.154l0.317,0.153l0.318,0.153l0.319,0.153l0.319,0.151l0.32,0.151l0.321,0.151l0.321,0.15l0.322,0.149l0.323,0.148l0.324,0.148l0.324,0.148l0.325,0.146l0.325,0.146l0.658,0.293l0.657,0.29l0.656,0.286l0.656,0.285l0.655,0.281l0.655,0.279l0.654,0.276l0.654,0.273l0.654,0.271l0.653,0.268l0.652,0.265l0.652,0.263l0.652,0.26l0.651,0.257l0.65,0.255l0.65,0.252l0.65,0.249l0.649,0.247l0.649,0.244l0.648,0.242l0.648,0.238l0.647,0.237l0.646,0.233l0.647,0.231l0.645,0.229l0.645,0.226l0.645,0.223l0.644,0.221l0.644,0.218l0.643,0.216l0.642,0.213l0.642,0.21l0.642,0.208l0.641,0.206l0.64,0.203l0.64,0.2l0.639,0.198l0.639,0.196l0.638,0.193l0.638,0.19l0.637,0.188l0.637,0.186l0.636,0.183l0.636,0.181l0.635,0.178l0.634,0.176l0.634,0.173l0.633,0.171l0.633,0.169l0.632,0.166l0.632,0.163l0.631,0.162l0.63,0.158l0.63,0.157l0.629,0.154l0.629,0.152l0.628,0.149l0.628,0.147l0.627,0.145l0.626,0.142l0.626,0.14l0.625,0.138l0.624,0.135l0.624,0.133l0.624,0.131l0.623,0.128l0.622,0.127l0.621,0.123l0.621,0.122l0.62,0.119l0.62,0.117l0.619,0.115l0.619,0.112l0.617,0.111l0.618,0.108l0.616,0.105l0.616,0.104l0.615,0.101l0.615,0.099l0.614,0.097l0.613,0.095l0.613,0.092l0.612,0.091l0.611,0.088l0.611,0.086l0.61,0.083l0.61,0.082l0.608,0.08l0.609,0.077l0.607,0.075l0.607,0.073l0.606,0.071l0.605,0.069l0.605,0.067l0.604,0.064l0.604,0.063l0.603,0.06l0.602,0.058l0.601,0.057l0.601,0.054l0.6,0.052l0.599,0.05l0.599,0.048l0.597,0.046l0.598,0.044l0.596,0.042l0.596,0.04l0.595,0.037l0.594,0.036l0.594,0.034l0.593,0.032l0.592,0.03l0.592,0.028l0.591,0.025l0.59,0.024l0.589,0.022l0.589,0.02l0.587,0.018l0.588,0.016l0.586,0.015l0.586,0.012l0.584,0.01l0.585,0.008l0.583,0.007l0.583,0.005l0.582,0.002l0.581,0.001l0.58,-0.001l0.58,-0.003l0.579,-0.005l0.578,-0.007l0.577,-0.008l0.577,-0.01l0.576,-0.013l0.575,-0.014l0.574,-0.016l0.573,-0.017l0.573,-0.02l0.572,-0.021l0.571,-0.023l0.571,-0.025l0.569,-0.027l0.569,-0.029l0.568,-0.03l0.567,-0.032l0.566,-0.034l0.566,-0.035l0.565,-0.038l0.564,-0.039l0.563,-0.041l0.562,-0.042l0.561,-0.044l0.561,-0.046l0.56,-0.048l0.559,-0.049l0.558,-0.051l0.558,-0.053l0.556,-0.055l0.556,-0.056l0.555,-0.057l0.554,-0.06l0.553,-0.061l0.552,-0.063l0.552,-0.064l0.551,-0.066l0.549,-0.068l0.549,-0.069l0.548,-0.071l0.548,-0.072l0.546,-0.074l0.545,-0.076l0.545,-0.077l0.544,-0.079l0.543,-0.08l0.542,-0.082l0.541,-0.084l0.54,-0.085l0.54,-0.087l0.538,-0.088l0.538,-0.09l0.536,-0.091l0.536,-0.092l0.535,-0.095l0.534,-0.096l0.533,-0.097l0.533,-0.099l0.531,-0.1l0.53,-0.102l0.53,-0.103l0.528,-0.104l0.528,-0.107l0.527,-0.107l0.526,-0.109l0.525,-0.111l0.524,-0.111l0.523,-0.114l0.522,-0.115l0.521,-0.116l0.52,-0.117l0.52,-0.119l0.518,-0.121l0.517,-0.121l0.517,-0.123l0.515,-0.125l0.515,-0.126l0.514,-0.127l0.512,-0.128l0.512,-0.13l0.511,-0.132l0.51,-0.132l0.508,-0.134l0.508,-0.135l0.507,-0.137l0.506,-0.138l0.505,-0.139l0.504,-0.14l0.503,-0.142l0.502,-0.143l0.501,-0.144l0.5,-0.146l0.499,-0.147l0.498,-0.148l0.497,-0.149l0.496,-0.15l0.495,-0.152l0.494,-0.153l0.493,-0.154l0.492,-0.156l0.491,-0.156l0.49,-0.158l0.489,-0.159l0.488,-0.16l0.487,-0.162l0.486,-0.162l0.484,-0.164l0.484,-0.165l0.483,-0.166l0.482,-0.167l0.48,-0.168l0.48,-0.17l0.479,-0.17l0.477,-0.172l0.477,-0.173l0.475,-0.173l0.475,-0.175l0.473,-0.176l0.472,-0.178l0.471,-0.178l0.471,-0.179l0.469,-0.18l0.468,-0.182l0.467,-0.182l0.465,-0.184l0.465,-0.184l0.464,-0.186l0.462,-0.186l0.462,-0.188l0.46,-0.189l0.46,-0.189l0.458,-0.191l0.457,-0.191l0.456,-0.193l0.455,-0.193l0.454,-0.195l0.452,-0.195l0.452,-0.197l0.451,-0.197l0.449,-0.199l0.448,-0.199l0.447,-0.2l0.446,-0.201l0.445,-0.202l0.444,-0.203l0.442,-0.204l0.442,-0.205l0.44,-0.205l0.439,-0.207l0.438,-0.207l0.437,-0.208l0.436,-0.21l0.435,-0.209l0.433,-0.211l0.432,-0.212l0.431,-0.212l0.43,-0.214l0.429,-0.214l0.428,-0.215l0.426,-0.215l0.426,-0.217l0.424,-0.217l0.423,-0.218l0.421,-0.219l0.421,-0.22l0.419,-0.22l0.418,-0.222l0.417,-0.221l0.416,-0.223l0.415,-0.224l0.413,-0.224l0.412,-0.225l0.411,-0.225l0.41,-0.226l0.409,-0.228l0.407,-0.227l0.406,-0.229l0.405,-0.229l0.404,-0.229l0.402,-0.231l0.401,-0.231l0.4,-0.232l0.399,-0.232l0.398,-0.233l0.396,-0.234l0.395,-0.234l0.394,-0.235l0.392,-0.236l0.392,-0.236l0.39,-0.236l0.389,-0.238l0.387,-0.238l0.386,-0.238l0.386,-0.239l0.383,-0.24l0.383,-0.24l0.381,-0.241l0.38,-0.241l0.379,-0.242l0.377,-0.243l0.376,-0.242l0.375,-0.244l0.373,-0.244l0.373,-0.244l0.371,-0.245l0.369,-0.246l0.369,-0.246l0.367,-0.246l0.366,-0.247l0.364,-0.247l0.363,-0.248l0.362,-0.248l0.36,-0.249l0.36,-0.249l0.358,-0.25l0.356,-0.25l0.355,-0.25l0.354,-0.251l0.353,-0.251l0.351,-0.252l0.35,-0.252l0.349,-0.252l0.347,-0.253l0.346,-0.253l0.344,-0.253l0.343,-0.254l0.342,-0.255l0.341,-0.254l0.339,-0.255l0.338,-0.255l0.336,-0.256l0.335,-0.255l0.334,-0.257l0.332,-0.256l0.331,-0.257l0.329,-0.257l0.328,-0.257l0.327,-0.258l0.326,-0.257l0.324,-0.258l0.322,-0.259l0.321,-0.258l0.32,-0.259l0.319,-0.259l0.317,-0.259l0.315,-0.26l0.315,-0.26l0.312,-0.26l0.312,-0.26l0.31,-0.26l0.308,-0.26l0.307,-0.261l0.306,-0.261l0.304,-0.261l0.303,-0.261l0.302,-0.261l0.3,-0.261l0.298,-0.262l0.297,-0.262l0.296,-0.261l0.294,-0.262l0.293,-0.262l0.291,-0.262l0.29,-0.262l0.288,-0.263l0.287,-0.262l0.286,-0.262l0.284,-0.263l0.282,-0.262l0.282,-0.263l0.279,-0.262l0.278,-0.263l0.277,-0.263l0.275,-0.262l0.274,-0.263l0.272,-0.263l0.271,-0.262l0.269,-0.263l0.268,-0.263l0.266,-0.262l0.265,-0.263l0.263,-0.263l0.262,-0.262l0.26,-0.263l0.258,-0.262l0.258,-0.262l0.255,-0.263l0.254,-0.262l0.253,-0.262l0.251,-0.262l0.25,-0.262l0.248,-0.262l0.246,-0.261l0.245,-0.262l0.244,-0.261l0.242,-0.261l0.24,-0.262l0.239,-0.261l0.237,-0.26l0.236,-0.261l0.234,-0.26l0.232,-0.261l0.231,-0.26l0.23,-0.26l0.228,-0.259l0.226,-0.26l0.225,-0.259l0.223,-0.259l0.221,-0.259l0.221,-0.259l0.218,-0.258l0.217,-0.258l0.215,-0.258l0.214,-0.257l0.212,-0.257l0.21,-0.257l0.209,-0.257l0.207,-0.256l0.206,-0.256l0.204,-0.256l0.202,-0.256l0.201,-0.255l0.2,-0.254l0.197,-0.255l0.196,-0.254l0.194,-0.253l0.193,-0.254l0.191,-0.253l0.19,-0.252l0.188,-0.252l0.186,-0.252l0.184,-0.252l0.183,-0.251l0.181,-0.25l0.18,-0.25l0.178,-0.25l0.176,-0.249l0.175,-0.249l0.173,-0.248l0.171,-0.248l0.17,-0.247l0.168,-0.247l0.166,-0.246l0.165,-0.246l0.163,-0.245l0.161,-0.245l0.16,-0.245l0.158,-0.243l0.156,-0.244l0.155,-0.242l0.152,-0.242l0.152,-0.242l0.149,-0.241l0.148,-0.24l0.146,-0.24l0.144,-0.239l0.143,-0.239l0.141,-0.238l0.139,-0.237l0.138,-0.237l0.136,-0.236l0.134,-0.235l0.132,-0.235l0.131,-0.234l0.129,-0.233l0.127,-0.233l0.125,-0.232l0.124,-0.232l0.122,-0.23l0.121,-0.23l0.118,-0.229l0.117,-0.229l0.115,-0.227l0.113,-0.227l0.112,-0.226l0.11,-0.226l0.108,-0.224l0.106,-0.224l0.105,-0.223l0.102,-0.222l0.101,-0.222l0.1,-0.22l0.097,-0.22l1.001,-2.286l4.122,1.804l-1.005,2.297l-0.107,0.241l-0.109,0.242l-0.111,0.243l-0.112,0.243l-0.114,0.243l-0.116,0.245l-0.118,0.244l-0.12,0.246l-0.121,0.245l-0.123,0.247l-0.125,0.247l-0.126,0.247l-0.128,0.248l-0.13,0.248l-0.132,0.249l-0.134,0.25l-0.135,0.249l-0.136,0.251l-0.139,0.251l-0.14,0.251l-0.142,0.252l-0.144,0.252l-0.146,0.253l-0.147,0.253l-0.149,0.254l-0.15,0.254l-0.152,0.254l-0.154,0.255l-0.156,0.256l-0.157,0.256l-0.159,0.256l-0.161,0.257l-0.162,0.257l-0.164,0.257l-0.166,0.258l-0.167,0.259l-0.169,0.258l-0.171,0.259l-0.172,0.26l-0.175,0.26l-0.175,0.26l-0.178,0.261l-0.179,0.261l-0.18,0.261l-0.183,0.262l-0.183,0.262l-0.186,0.262l-0.187,0.262l-0.189,0.264l-0.191,0.263l-0.192,0.263l-0.194,0.264l-0.195,0.264l-0.197,0.265l-0.199,0.265l-0.2,0.265l-0.202,0.265l-0.203,0.266l-0.205,0.266l-0.207,0.266l-0.208,0.266l-0.21,0.267l-0.212,0.267l-0.213,0.267l-0.215,0.267l-0.216,0.268l-0.218,0.268l-0.22,0.268l-0.221,0.268l-0.222,0.268l-0.225,0.269l-0.225,0.268l-0.228,0.269l-0.229,0.269l-0.23,0.27l-0.233,0.269l-0.233,0.27l-0.235,0.27l-0.237,0.269l-0.239,0.271l-0.24,0.27l-0.241,0.27l-0.243,0.27l-0.245,0.271l-0.246,0.27l-0.248,0.271l-0.249,0.271l-0.251,0.271l-0.252,0.271l-0.254,0.271l-0.255,0.271l-0.257,0.271l-0.259,0.271l-0.26,0.271l-0.261,0.272l-0.263,0.271l-0.265,0.271l-0.266,0.272l-0.267,0.271l-0.269,0.272l-0.271,0.271l-0.272,0.271l-0.273,0.272l-0.275,0.271l-0.277,0.271l-0.278,0.272l-0.28,0.271l-0.281,0.271l-0.282,0.271l-0.284,0.272l-0.286,0.271l-0.287,0.271l-0.288,0.271l-0.29,0.27l-0.292,0.271l-0.293,0.271l-0.294,0.27l-0.296,0.271l-0.297,0.27l-0.299,0.27l-0.3,0.27l-0.302,0.27l-0.303,0.27l-0.304,0.27l-0.306,0.269l-0.308,0.269l-0.309,0.27l-0.31,0.269l-0.312,0.268l-0.313,0.269l-0.315,0.268l-0.316,0.269l-0.317,0.268l-0.319,0.267l-0.32,0.268l-0.322,0.267l-0.323,0.267l-0.325,0.267l-0.326,0.267l-0.327,0.266l-0.329,0.266l-0.33,0.266l-0.332,0.266l-0.333,0.265l-0.335,0.265l-0.335,0.265l-0.338,0.264l-0.338,0.264l-0.34,0.264l-0.342,0.263l-0.342,0.264l-0.345,0.262l-0.345,0.263l-0.347,0.262l-0.348,0.262l-0.35,0.261l-0.351,0.261l-0.352,0.261l-0.354,0.26l-0.355,0.26l-0.357,0.259l-0.358,0.259l-0.359,0.259l-0.36,0.258l-0.362,0.258l-0.363,0.258l-0.365,0.257l-0.366,0.256l-0.367,0.256l-0.369,0.256l-0.37,0.255l-0.371,0.255l-0.372,0.254l-0.374,0.254l-0.375,0.253l-0.377,0.253l-0.378,0.252l-0.379,0.252l-0.38,0.251l-0.382,0.251l-0.383,0.25l-0.385,0.25l-0.385,0.249l-0.387,0.248l-0.389,0.248l-0.389,0.248l-0.391,0.247l-0.392,0.246l-0.394,0.246l-0.394,0.245l-0.397,0.244l-0.397,0.244l-0.398,0.243l-0.4,0.243l-0.401,0.242l-0.403,0.242l-0.403,0.24l-0.405,0.241l-0.407,0.239l-0.407,0.239l-0.409,0.238l-0.41,0.238l-0.411,0.237l-0.412,0.236l-0.414,0.235l-0.415,0.235l-0.416,0.234l-0.418,0.233l-0.418,0.233l-0.42,0.232l-0.421,0.231l-0.423,0.23l-0.423,0.23l-0.425,0.229l-0.426,0.228l-0.427,0.228l-0.429,0.226l-0.43,0.226l-0.43,0.225l-0.433,0.224l-0.433,0.224l-0.434,0.223l-0.436,0.221l-0.437,0.221l-0.438,0.221l-0.439,0.219l-0.441,0.218l-0.442,0.218l-0.443,0.217l-0.444,0.216l-0.445,0.215l-0.446,0.214l-0.448,0.214l-0.448,0.212l-0.45,0.212l-0.452,0.21l-0.452,0.21l-0.453,0.209l-0.455,0.208l-0.456,0.207l-0.456,0.206l-0.458,0.205l-0.46,0.204l-0.46,0.203l-0.461,0.202l-0.463,0.201l-0.464,0.201l-0.465,0.199l-0.466,0.198l-0.467,0.197l-0.468,0.197l-0.47,0.195l-0.47,0.194l-0.472,0.194l-0.473,0.192l-0.474,0.191l-0.475,0.19l-0.476,0.189l-0.477,0.188l-0.478,0.187l-0.48,0.186l-0.48,0.184l-0.482,0.184l-0.483,0.183l-0.484,0.181l-0.485,0.181l-0.485,0.179l-0.488,0.178l-0.488,0.177l-0.489,0.176l-0.49,0.174l-0.492,0.174l-0.492,0.172l-0.494,0.172l-0.494,0.17l-0.496,0.169l-0.497,0.167l-0.498,0.167l-0.498,0.165l-0.5,0.164l-0.501,0.163l-0.502,0.162l-0.503,0.16l-0.505,0.16l-0.505,0.158l-0.506,0.156l-0.507,0.156l-0.508,0.154l-0.51,0.153l-0.51,0.152l-0.511,0.15l-0.513,0.149l-0.513,0.148l-0.514,0.147l-0.516,0.145l-0.516,0.144l-0.518,0.142l-0.518,0.142l-0.52,0.139l-0.52,0.139l-0.521,0.137l-0.523,0.136l-0.523,0.135l-0.525,0.133l-0.525,0.132l-0.527,0.13l-0.527,0.129l-0.528,0.127l-0.53,0.127l-0.53,0.124l-0.531,0.124l-0.532,0.122l-0.534,0.12l-0.534,0.119l-0.535,0.118l-0.536,0.116l-0.537,0.115l-0.538,0.113l-0.539,0.112l-0.54,0.11l-0.541,0.109l-0.542,0.107l-0.543,0.106l-0.543,0.104l-0.545,0.103l-0.545,0.101l-0.547,0.1l-0.547,0.098l-0.549,0.096l-0.549,0.096l-0.55,0.093l-0.551,0.092l-0.552,0.09l-0.553,0.089l-0.554,0.087l-0.555,0.086l-0.555,0.084l-0.557,0.082l-0.557,0.081l-0.558,0.079l-0.56,0.078l-0.56,0.076l-0.561,0.074l-0.562,0.073l-0.562,0.071l-0.564,0.069l-0.565,0.068l-0.565,0.066l-0.566,0.064l-0.567,0.063l-0.568,0.061l-0.569,0.059l-0.57,0.057l-0.57,0.056l-0.572,0.054l-0.572,0.053l-0.573,0.05l-0.574,0.049l-0.575,0.047l-0.576,0.046l-0.576,0.043l-0.577,0.042l-0.579,0.04l-0.579,0.038l-0.579,0.037l-0.581,0.034l-0.581,0.033l-0.583,0.031l-0.583,0.03l-0.584,0.027l-0.584,0.026l-0.586,0.023l-0.586,0.022l-0.587,0.02l-0.588,0.018l-0.589,0.017l-0.589,0.014l-0.591,0.013l-0.591,0.01l-0.592,0.009l-0.592,0.007l-0.594,0.005l-0.594,0.003l-0.595,0.001l-0.596,-0.001l-0.596,-0.003l-0.598,-0.004l-0.598,-0.007l-0.598,-0.008l-0.6,-0.011l-0.6,-0.013l-0.601,-0.014l-0.602,-0.017l-0.603,-0.018l-0.603,-0.021l-0.604,-0.022l-0.605,-0.025l-0.606,-0.026l-0.606,-0.029l-0.607,-0.03l-0.608,-0.033l-0.608,-0.034l-0.609,-0.037l-0.61,-0.039l-0.611,-0.041l-0.611,-0.043l-0.612,-0.045l-0.613,-0.047l-0.613,-0.049l-0.614,-0.051l-0.615,-0.054l-0.616,-0.055l-0.616,-0.058l-0.617,-0.06l-0.617,-0.061l-0.619,-0.065l-0.619,-0.066l-0.619,-0.068l-0.621,-0.071l-0.621,-0.072l-0.621,-0.075l-0.623,-0.077l-0.623,-0.079l-0.623,-0.082l-0.625,-0.083l-0.624,-0.086l-0.626,-0.088l-0.626,-0.09l-0.627,-0.093l-0.628,-0.095l-0.628,-0.097l-0.629,-0.099l-0.629,-0.101l-0.631,-0.104l-0.63,-0.106l-0.632,-0.108l-0.632,-0.111l-0.632,-0.113l-0.634,-0.115l-0.633,-0.118l-0.635,-0.119l-0.635,-0.122l-0.636,-0.125l-0.636,-0.127l-0.637,-0.129l-0.637,-0.131l-0.639,-0.134l-0.638,-0.136l-0.64,-0.139l-0.639,-0.141l-0.641,-0.143l-0.641,-0.146l-0.642,-0.148l-0.642,-0.15l-0.642,-0.153l-0.644,-0.155l-0.644,-0.158l-0.644,-0.16l-0.645,-0.163l-0.646,-0.165l-0.646,-0.167l-0.647,-0.17l-0.647,-0.172l-0.648,-0.175l-0.648,-0.178l-0.649,-0.179l-0.65,-0.183l-0.65,-0.184l-0.65,-0.188l-0.651,-0.19l-0.652,-0.192l-0.652,-0.195l-0.652,-0.197l-0.654,-0.2l-0.653,-0.202l-0.654,-0.205l-0.655,-0.208l-0.655,-0.21l-0.656,-0.212l-0.656,-0.216l-0.657,-0.218l-0.657,-0.22l-0.658,-0.223l-0.658,-0.225l-0.659,-0.229l-0.659,-0.231l-0.66,-0.233l-0.66,-0.236l-0.66,-0.239l-0.661,-0.241l-0.662,-0.244l-0.662,-0.247l-0.663,-0.249l-0.663,-0.252l-0.663,-0.255l-0.664,-0.257l-0.664,-0.26l-0.665,-0.263l-0.665,-0.265l-0.666,-0.268l-0.666,-0.271l-0.667,-0.274l-0.667,-0.276l-0.667,-0.279l-0.668,-0.282l-0.668,-0.284l-0.669,-0.288l-0.669,-0.29l-0.67,-0.292l-0.67,-0.296l-0.67,-0.298l-0.336,-0.151l-0.335,-0.151l-0.334,-0.152l-0.334,-0.152l-0.333,-0.153l-0.332,-0.154l-0.331,-0.155l-0.331,-0.155l-0.33,-0.156l-0.329,-0.156l-0.329,-0.157l-0.328,-0.158l-0.327,-0.158l-0.326,-0.159l-0.326,-0.16l-0.325,-0.16l-0.325,-0.161l-0.323,-0.162l-0.323,-0.162l-0.323,-0.163l-0.321,-0.164l-0.321,-0.164l-0.32,-0.165l-0.32,-0.165l-0.319,-0.167l-0.318,-0.166l-0.317,-0.168l-0.317,-0.168l-0.316,-0.168l-0.315,-0.17l-0.315,-0.17l-0.314,-0.17l-0.313,-0.172l-0.313,-0.171l-0.312,-0.173l-0.311,-0.173l-0.31,-0.174l-0.31,-0.174l-0.309,-0.175l-0.308,-0.176l-0.308,-0.176l-0.307,-0.177l-0.306,-0.177l-0.306,-0.178l-0.305,-0.179l-0.304,-0.18l-0.304,-0.18l-0.302,-0.18l-0.303,-0.181l-0.301,-0.182l-0.301,-0.183l-0.3,-0.183l-0.299,-0.183l-0.299,-0.185l-0.298,-0.184l-0.297,-0.186l-0.297,-0.186l-0.296,-0.187l-0.295,-0.187l-0.295,-0.188l-0.294,-0.189l-0.293,-0.189l-0.293,-0.189l-0.291,-0.191l-0.292,-0.191l-0.29,-0.191l-0.29,-0.192l-0.289,-0.193l-0.288,-0.193l-0.288,-0.194l-0.287,-0.195l-0.287,-0.195l-0.285,-0.196l-0.285,-0.196l-0.285,-0.197l-0.284,-0.197l-0.283,-0.198l-0.282,-0.199l-0.281,-0.199l-0.281,-0.2l-0.281,-0.201l-0.279,-0.201l-0.279,-0.201l-0.278,-0.202l-0.278,-0.203l-0.277,-0.203l-0.276,-0.204l-0.276,-0.205l-0.275,-0.205l-0.274,-0.206l-0.273,-0.206l-0.273,-0.207l-0.272,-0.207l-0.272,-0.208l-0.271,-0.208l-0.27,-0.209l-0.269,-0.21l-0.269,-0.21l-0.268,-0.211l-0.268,-0.211l-0.266,-0.212l-0.266,-0.213l-0.266,-0.213l-0.265,-0.213l-0.264,-0.214l-0.263,-0.215l-0.263,-0.215l-0.262,-0.216l-0.262,-0.217l-0.26,-0.217l-0.26,-0.217l-0.26,-0.218l-0.259,-0.219l-0.258,-0.219l-0.257,-0.22l-0.257,-0.22l-0.256,-0.221l-0.255,-0.221l-0.255,-0.222l-0.254,-0.222l-0.254,-0.223l-0.253,-0.224l-0.252,-0.224l-0.251,-0.224l-0.251,-0.226l-0.25,-0.225l-0.249,-0.226l-0.249,-0.227l-0.248,-0.227l-0.248,-0.228l-0.247,-0.229l-0.246,-0.229l-0.245,-0.229l-0.245,-0.23l-0.244,-0.23l-0.244,-0.231l-0.243,-0.232l-0.242,-0.232l-0.242,-0.233l-0.241,-0.233l-0.24,-0.233l-0.239,-0.235l-0.239,-0.234l-0.239,-0.236l-0.237,-0.235l-0.237,-0.236l-0.237,-0.237l-0.235,-0.237l-0.235,-0.238l-0.235,-0.239l-0.233,-0.238l-0.233,-0.24l-0.233,-0.24l-0.231,-0.24l-0.232,-0.241l-0.23,-0.241l-0.23,-0.242l-0.229,-0.242l-0.229,-0.243l-0.227,-0.244l-0.228,-0.244l-0.226,-0.244l-0.226,-0.245l-0.225,-0.245l-0.225,-0.246l-0.224,-0.247l-0.223,-0.247l-0.223,-0.247l-0.222,-0.248l-0.221,-0.248l-0.221,-0.249l-0.22,-0.249l-0.22,-0.25l-0.219,-0.251l-0.218,-0.25l-0.217,-0.252l-0.217,-0.252l-0.216,-0.252l-0.216,-0.253l-0.215,-0.253l-0.214,-0.254l-0.214,-0.254l-0.213,-0.255l-0.212,-0.255l-0.212,-0.255l-0.211,-0.257l-0.211,-0.256l-0.21,-0.257l-0.209,-0.258l-0.209,-0.258l-0.208,-0.258l-0.207,-0.259l-0.207,-0.26l-0.206,-0.26l-0.205,-0.26l-0.205,-0.261l-0.204,-0.261l-0.204,-0.262l-0.202,-0.262l-0.203,-0.263l-0.201,-0.263l-0.201,-0.264l-0.201,-0.264l-0.199,-0.264l-0.2,-0.265l-0.198,-0.266l-0.198,-0.266l-0.197,-0.266l-0.197,-0.267l-0.196,-0.267l-0.195,-0.268l-0.195,-0.268l-0.194,-0.269l-0.193,-0.269l-0.193,-0.269l-0.192,-0.27l-0.192,-0.271l-0.191,-0.271l-0.19,-0.271l-0.19,-0.272l-0.189,-0.272l-0.189,-0.274l-0.374,-0.545l-0.373,-0.548l-0.37,-0.551l-0.368,-0.551l-0.365,-0.554l-0.363,-0.555l-0.36,-0.557l-0.358,-0.559l-0.355,-0.56l-0.353,-0.562l-0.35,-0.564l-0.348,-0.565l-0.346,-0.567l-0.343,-0.569l-0.34,-0.57l-0.339,-0.572l-0.335,-0.573l-0.334,-0.576l-0.331,-0.576l-0.328,-0.579l-0.326,-0.58l-0.324,-0.581l-0.321,-0.584l-0.319,-0.584l-0.317,-0.587l-0.314,-0.587l-0.311,-0.59l-0.31,-0.591l-0.307,-0.592l-0.304,-0.594l-0.302,-0.596l-0.3,-0.597l-0.297,-0.598l-0.295,-0.6l-0.293,-0.602l-0.29,-0.602l-0.288,-0.605l-0.286,-0.606l-0.283,-0.607l-0.281,-0.609l-0.279,-0.61l-0.276,-0.612l-0.274,-0.613l-0.272,-0.614l-0.269,-0.616l-0.267,-0.617l-0.264,-0.619l-0.263,-0.62l-0.26,-0.621l-0.257,-0.623l-0.256,-0.624l-0.253,-0.625l-0.251,-0.627l-0.248,-0.628l-0.246,-0.63l-0.244,-0.63l-0.242,-0.632l-0.239,-0.634l-0.238,-0.634l-0.234,-0.636l-0.233,-0.638l-0.23,-0.638l-0.228,-0.64l-0.226,-0.641l-0.224,-0.642l-0.221,-0.644l-0.219,-0.644l-0.217,-0.646l-0.215,-0.647l-0.212,-0.649l-0.21,-0.649l-0.208,-0.651l-0.206,-0.652l-0.203,-0.653l-0.202,-0.654l-0.199,-0.656l-0.197,-0.656l-0.194,-0.658l-0.193,-0.659l-0.19,-0.66l-0.188,-0.661l-0.186,-0.662l-0.184,-0.663l-0.182,-0.665l-0.179,-0.665l-0.177,-0.667l-0.175,-0.668l-0.173,-0.668l-0.171,-0.67l-0.169,-0.671l-0.166,-0.672l-0.164,-0.673l-0.162,-0.674l-0.16,-0.675l-0.158,-0.676l-0.156,-0.677l-0.154,-0.678l-0.151,-0.679l-0.15,-0.68l-0.147,-0.681l-0.145,-0.682l-0.143,-0.683l-0.141,-0.684l-0.139,-0.684l-0.137,-0.686l-0.134,-0.687l-0.133,-0.687l-0.13,-0.689l-0.129,-0.689l-0.126,-0.691l-0.124,-0.691l-0.122,-0.692l-0.121,-0.693l-0.118,-0.694l-0.116,-0.694l-0.114,-0.696l-0.111,-0.696l-0.11,-0.698l-0.108,-0.698l-0.106,-0.699l-0.103,-0.699l-0.102,-0.701l-0.1,-0.701l-0.097,-0.702l-0.096,-0.703l-0.094,-0.704l-0.091,-0.704l-0.09,-0.705l-0.087,-0.706l-0.086,-0.707l-0.083,-0.708l-0.082,-0.708l-0.079,-0.709l-0.078,-0.709l-0.076,-0.711l-0.073,-0.711l-0.072,-0.711l-0.07,-0.713l-0.067,-0.713l-0.066,-0.714l-0.064,-0.714l-0.061,-0.715l-0.06,-0.716l-0.058,-0.717l-0.056,-0.717l-0.054,-0.717l-0.052,-0.719l-0.05,-0.718l-0.048,-0.72l-0.047,-0.72l-0.044,-0.721l-0.042,-0.721l-0.041,-0.722l-0.039,-0.722l-0.036,-0.723l-0.035,-0.724l-0.033,-0.724l-0.031,-0.725l-0.029,-0.725l-0.027,-0.725l-0.025,-0.727l-0.024,-0.726l-0.021,-0.727l-0.02,-0.728l-0.018,-0.728l-0.015,-0.729l-0.014,-0.729l-0.013,-0.73l-0.01,-0.73l-0.008,-0.73l-0.007,-0.731l-0.005,-0.732l-0.003,-0.731l-0.001,-0.733l0.001,-0.732l0.003,-0.733l0.004,-0.734l0.007,-0.733l0.008,-0.735l0.01,-0.734l0.011,-0.735l0.014,-0.735l0.015,-0.736l0.017,-0.736l0.019,-0.736l0.021,-0.737l0.023,-0.737l0.024,-0.737l0.026,-0.738l0.028,-0.737l0.03,-0.739l0.031,-0.738l0.034,-0.739l0.035,-0.739l0.036,-0.739l0.039,-0.739l0.04,-0.74l0.042,-0.74l0.044,-0.74l0.046,-0.741l0.047,-0.74l0.049,-0.741l0.051,-0.741l0.052,-0.742l0.055,-0.741l0.056,-0.742l0.057,-0.741l0.06,-0.742l0.061,-0.742l0.063,-0.743l0.064,-0.742l0.067,-0.743l0.067,-0.742l0.07,-0.743l0.071,-0.743l0.074,-0.743l0.074,-0.743l0.077,-0.743l0.078,-0.743l0.08,-0.744l0.081,-0.743l0.083,-0.743l0.085,-0.744l0.086,-0.743l0.088,-0.744l0.09,-0.743l0.092,-0.744l0.093,-0.744l0.094,-0.743l0.097,-0.744l0.098,-0.743l0.099,-0.744l0.101,-0.744l0.103,-0.743l0.105,-0.744l0.106,-0.743l0.108,-0.743l0.109,-0.744l0.111,-0.743l0.112,-0.743l0.115,-0.743l0.115,-0.743l0.118,-0.743l0.119,-0.743l0.12,-0.743l0.122,-0.742l0.124,-0.743l0.125,-0.742l0.127,-0.742l0.128,-0.742l0.13,-0.742l0.132,-0.742l0.133,-0.741l0.135,-0.741l0.136,-0.741l0.138,-0.741l0.139,-0.741l0.141,-0.741l0.142,-0.74l0.144,-0.74l0.146,-0.74l0.147,-0.739l0.148,-0.74l0.15,-0.739l0.152,-0.738l0.153,-0.739l0.154,-0.738l0.156,-0.738l0.158,-0.738l0.159,-0.737l0.16,-0.737l0.162,-0.737l0.164,-0.736l0.165,-0.736l0.167,-0.736l0.167,-0.735l0.17,-0.735l0.171,-0.735l0.172,-0.734l0.174,-0.734l0.175,-0.734l0.177,-0.733l0.178,-0.733l0.18,-0.732l0.181,-0.732l0.183,-0.731l0.184,-0.731l0.185,-0.731l0.187,-0.73l0.189,-0.73l0.189,-0.729l0.191,-0.729l0.193,-0.728l0.194,-0.728l0.195,-0.728l0.197,-0.726l0.198,-0.727l0.2,-0.726l0.201,-0.725l0.203,-0.725l0.203,-0.724l0.206,-0.724l0.206,-0.723l0.208,-0.722l0.209,-0.722l0.211,-0.722l0.212,-0.721l0.214,-0.72l0.214,-0.72l0.217,-0.719l0.217,-0.718l0.219,-0.718l0.22,-0.717l0.222,-0.717l0.223,-0.716l0.224,-0.715l0.226,-0.715l0.226,-0.714l0.229,-0.713l0.229,-0.713l0.231,-0.712l0.232,-0.711l0.234,-0.71l0.235,-0.71l0.236,-0.709l0.237,-0.709l0.239,-0.707l0.24,-0.707l0.241,-0.707l0.243,-0.705l0.244,-0.705l0.245,-0.704l0.247,-0.703l0.247,-0.702l0.249,-0.702l0.251,-0.7l0.251,-0.7l0.253,-0.699l0.254,-0.699l0.256,-0.697l0.256,-0.697l0.258,-0.696l0.259,-0.695l0.26,-0.694l0.262,-0.693l0.263,-0.692l0.264,-0.692l0.265,-0.69l0.267,-0.69l0.267,-0.689l0.269,-0.688l0.27,-0.687l0.272,-0.686l0.272,-0.685l0.274,-0.684l0.275,-0.683l0.276,-0.682l0.277,-0.682l0.279,-0.68l0.28,-0.679l0.281,-0.678l0.282,-0.678l0.283,-0.676l0.284,-0.676l0.286,-0.674l0.287,-0.673l0.288,-0.672l0.289,-0.672l0.29,-0.67l0.292,-0.669l0.292,-0.668l0.294,-0.667l0.295,-0.666l0.296,-0.665l0.297,-0.663l0.298,-0.663l0.299,-0.662l0.301,-0.66l0.302,-0.659l0.302,-0.658l0.304,-0.657l0.305,-0.656l0.306,-0.655l0.307,-0.654l0.309,-0.652l0.309,-0.651l0.31,-0.65l0.312,-0.649l0.313,-0.648l0.313,-0.646l0.315,-0.645l0.316,-0.645l0.317,-0.642l0.318,-0.642l0.319,-0.64l0.32,-0.639l0.322,-0.638l0.322,-0.637l0.323,-0.635l0.325,-0.634l1.353,-2.631l4.002,2.058Z"/><path d="M113.945,39.404l0.569,49.85l-40.107,-19.484l39.538,-30.366Z"/><g transform="matrix(0.753252,0,0,0.710615,32.8549,57.3205)"><text x="193.05px" y="148.363px" style="font-family:'Chalkduster', cursive;font-size:64.042px;">D<tspan x="237.208px 276.27px 305.496px " y="148.363px 148.363px 148.363px ">et </tspan>an<tspan x="426.08px 454.669px 496.208px " y="148.363px 148.363px 148.363px ">tal</tspan></text><text x="213.749px" y="213.255px" style="font-family:'Chalkduster', cursive;font-size:64.042px;">b<tspan x="249.485px 293.643px " y="213.255px 213.255px ">an</tspan>an<tspan x="432.767px 471.83px " y="213.255px 213.255px ">er</tspan></text><text x="142.064px" y="278.147px" style="font-family:'Chalkduster', cursive;font-size:64.042px;">d<tspan x="193.369px 237.385px " y="278.147px 278.147px ">u </tspan>ha<tspan x="349.618px 383.373px " y="278.147px 278.147px ">r </tspan>sp<tspan x="488.459px 513.722px 548.044px " y="278.147px 278.147px 278.147px ">ist</tspan></text><text x="191.423px" y="343.038px" style="font-family:'Chalkduster', cursive;font-size:64.042px;">i Cana<tspan x="433.722px 483.753px " y="343.038px 343.038px ">da</tspan></text></g></svg>